<svg width="85" height="72" viewBox="0 0 85 72" fill="none" xmlns="http://www.w3.org/2000/svg">
<path fill-rule="evenodd" clip-rule="evenodd" d="M43.5238 67.9119C41.4503 65.8384 41.4503 62.4767 43.5238 60.4032L60.927 43L5.8095 43C2.87714 43 0.499998 40.6229 0.499998 37.6905L0.499998 35.3095C0.499999 32.3771 2.87715 30 5.80951 30L61.9272 30L43.5236 11.5964C41.4501 9.52287 41.4501 6.16108 43.5236 4.08758L45.4008 2.21039C47.4743 0.136898 50.836 0.136901 52.9095 2.21039L77.3129 26.6138L77.3132 26.6138L77.3134 26.6138L82.9449 32.2453C85.0184 34.3188 85.0184 37.6805 82.9449 39.754L52.9098 69.7891C50.8363 71.8626 47.4745 71.8626 45.401 69.7891L43.5238 67.9119Z" fill="white"/>
</svg>
