<svg width="256" height="256" viewBox="0 0 256 256" fill="none" xmlns="http://www.w3.org/2000/svg">
<rect width="256" height="256" rx="128" fill="url(#paint0_radial_1927_992)" fill-opacity="0.5"/>
<path d="M68 108C68 85.9086 85.9086 68 108 68H188V148H108C85.9086 148 68 130.091 68 108Z" fill="url(#paint1_linear_1927_992)"/>
<path d="M188 148C188 170.091 170.091 188 148 188L68 188L68 108L148 108C170.091 108 188 125.909 188 148Z" fill="url(#paint2_linear_1927_992)"/>
<path fill-rule="evenodd" clip-rule="evenodd" d="M68 108C68 108.008 68 108.016 68 108.024C68.0129 130.104 85.9166 148 108 148H188C188 125.909 170.091 108 148 108L68 108L68 108Z" fill="url(#paint3_linear_1927_992)"/>
<defs>
<radialGradient id="paint0_radial_1927_992" cx="0" cy="0" r="1" gradientUnits="userSpaceOnUse" gradientTransform="translate(128 128) rotate(90) scale(128)">
<stop stop-color="#408CFF"/>
<stop offset="1" stop-color="#408CFF" stop-opacity="0"/>
</radialGradient>
<linearGradient id="paint1_linear_1927_992" x1="188" y1="108" x2="68" y2="108" gradientUnits="userSpaceOnUse">
<stop stop-color="#98BFFA"/>
<stop offset="1" stop-color="#408CFF"/>
</linearGradient>
<linearGradient id="paint2_linear_1927_992" x1="68" y1="148" x2="188" y2="148" gradientUnits="userSpaceOnUse">
<stop stop-color="#98BFFA"/>
<stop offset="1" stop-color="#408CFF"/>
</linearGradient>
<linearGradient id="paint3_linear_1927_992" x1="68" y1="108" x2="188" y2="148" gradientUnits="userSpaceOnUse">
<stop stop-color="#408CFF"/>
<stop offset="0.5" stop-color="#98BFFA"/>
<stop offset="1" stop-color="#408CFF"/>
</linearGradient>
</defs>
</svg>
