<svg width="201" height="200" viewBox="0 0 201 200" fill="none" xmlns="http://www.w3.org/2000/svg">
<path fill-rule="evenodd" clip-rule="evenodd" d="M149.982 18.7129H121.289L40.5002 99.4985H40.498L40.4991 99.4995L40.498 99.5006H40.5002L121.289 180.286H149.982C154.3 180.286 156.463 175.065 153.409 172.011L80.8947 99.4995L153.409 26.9879C156.463 23.9343 154.3 18.7129 149.982 18.7129Z" fill="#98BFFA"/>
<path fill-rule="evenodd" clip-rule="evenodd" d="M100.491 39.4967L79.707 18.7139H51.0143C46.6957 18.7139 44.533 23.9353 47.5868 26.9889L80.2929 59.6936L100.491 39.4967ZM100.491 79.8905L120.103 99.5015L47.5868 172.014C44.533 175.068 46.6957 180.289 51.0143 180.289H79.707L160.498 99.5015L120.689 59.6936L100.491 79.8905Z" fill="#408CFF"/>
</svg>
