<svg width="266" height="262" viewBox="0 0 266 262" fill="none" xmlns="http://www.w3.org/2000/svg">
<g filter="url(#filter0_d_2014_107)">
<path fill-rule="evenodd" clip-rule="evenodd" d="M154.386 66.8981C154.386 70.3873 154.459 72.4227 154.604 73.0043C154.604 90.4505 151.187 108.333 144.354 126.651C141.737 115.166 140.429 103.826 140.429 92.6313C140.429 81.4366 141.156 72.2774 142.61 65.1535C144.064 57.8842 146.317 54.2496 149.37 54.2496C152.423 54.2496 154.095 58.4658 154.386 66.8981ZM65.41 114.657C65.41 85.144 70.7893 59.4108 81.5478 37.4576C81.984 36.1491 82.202 35.0587 82.202 34.1864C82.202 32.7325 81.5478 32.0056 80.2393 32.0056C76.4593 32.0056 73.6243 33.5322 71.7343 36.5853C64.3196 48.3615 57.7046 65.4442 51.8891 87.8336C46.0737 110.078 43.166 130.65 43.166 149.55C43.166 184.442 54.288 201.888 76.532 201.888C95.7229 201.888 113.242 190.621 129.089 168.086C132.724 180.589 137.885 190.33 144.572 197.309C151.26 204.433 158.093 207.995 165.072 207.995C175.54 207.995 184.844 205.014 192.986 199.053C201.273 193.238 205.416 188.295 205.416 184.224C205.416 183.061 204.98 181.898 204.108 180.735C203.236 179.572 202.291 178.99 201.273 178.99C200.255 178.99 198.583 179.935 196.257 181.825C193.931 183.57 191.459 184.442 188.842 184.442C178.811 184.442 170.233 179.935 163.109 170.921C156.131 161.762 150.679 150.131 146.753 136.029C152.714 122.217 157.294 107.969 160.492 93.2855C163.836 78.6016 165.508 65.8804 165.508 55.1219C165.508 40.2926 162.673 32.8779 157.003 32.8779C149.152 32.8779 142.101 42.0372 135.849 60.3558C129.743 78.6743 125.818 101.718 124.073 129.486C124.073 139.518 124.873 148.895 126.472 157.619C117.749 167.796 108.153 172.884 97.6856 172.884C87.3632 172.884 79.8759 168.668 75.2235 160.235C73.0427 156.31 71.2254 152.312 69.7716 148.241C68.3177 144.17 67.2273 138.646 66.5004 131.667C65.7735 124.689 65.41 119.019 65.41 114.657Z" fill="white"/>
<path fill-rule="evenodd" clip-rule="evenodd" d="M216.962 113.875C217.678 113.875 218.258 113.295 218.258 112.579C218.258 111.863 217.678 111.283 216.962 111.283C216.246 111.283 215.666 111.863 215.666 112.579C215.666 113.295 216.246 113.875 216.962 113.875ZM218.916 119.408C218.916 120.582 217.965 121.533 216.791 121.533C215.618 121.533 214.666 120.582 214.666 119.408C214.666 118.235 215.618 117.283 216.791 117.283C217.965 117.283 218.916 118.235 218.916 119.408ZM212.6 126.125C212.6 127.556 211.439 128.717 210.008 128.717C208.577 128.717 207.416 127.556 207.416 126.125C207.416 124.694 208.577 123.533 210.008 123.533C211.439 123.533 212.6 124.694 212.6 126.125ZM222.834 125.617C222.834 126.492 222.125 127.201 221.25 127.201C220.375 127.201 219.666 126.492 219.666 125.617C219.666 124.742 220.375 124.033 221.25 124.033C222.125 124.033 222.834 124.742 222.834 125.617Z" fill="white"/>
</g>
<defs>
<filter id="filter0_d_2014_107" x="-29.6667" y="-32" width="325.333" height="325.333" filterUnits="userSpaceOnUse" color-interpolation-filters="sRGB">
<feFlood flood-opacity="0" result="BackgroundImageFix"/>
<feColorMatrix in="SourceAlpha" type="matrix" values="0 0 0 0 0 0 0 0 0 0 0 0 0 0 0 0 0 0 127 0" result="hardAlpha"/>
<feOffset dy="10.6667"/>
<feGaussianBlur stdDeviation="21.3334"/>
<feComposite in2="hardAlpha" operator="out"/>
<feColorMatrix type="matrix" values="0 0 0 0 0 0 0 0 0 0 0 0 0 0 0 0 0 0 0.15 0"/>
<feBlend mode="normal" in2="BackgroundImageFix" result="effect1_dropShadow_2014_107"/>
<feBlend mode="normal" in="SourceGraphic" in2="effect1_dropShadow_2014_107" result="shape"/>
</filter>
</defs>
</svg>
