<svg width="160" height="176" viewBox="0 0 160 176" fill="none" xmlns="http://www.w3.org/2000/svg">
<g filter="url(#filter0_d_1993_1020)">
<path d="M20 61.5H140V131.5C140 142.546 131.046 151.5 120 151.5H40C28.9543 151.5 20 142.546 20 131.5V61.5Z" fill="white"/>
<path d="M20 51.5C20 40.4543 28.9543 31.5 40 31.5H120C131.046 31.5 140 40.4543 140 51.5V61.5H20V51.5Z" fill="#FF5A5A"/>
<path d="M67 41.5C67 45.366 63.866 48.5 60 48.5C56.134 48.5 53 45.366 53 41.5C53 37.634 56.134 34.5 60 34.5C63.866 34.5 67 37.634 67 41.5Z" fill="black" fill-opacity="0.25"/>
<path d="M107 41.5C107 45.366 103.866 48.5 100 48.5C96.134 48.5 93 45.366 93 41.5C93 37.634 96.134 34.5 100 34.5C103.866 34.5 107 37.634 107 41.5Z" fill="black" fill-opacity="0.25"/>
<rect x="55" y="16.5" width="10" height="30" rx="5" fill="#595959"/>
<rect x="95" y="16.5" width="10" height="30" rx="5" fill="#595959"/>
</g>
<defs>
<filter id="filter0_d_1993_1020" x="0" y="0.5" width="160" height="175" filterUnits="userSpaceOnUse" color-interpolation-filters="sRGB">
<feFlood flood-opacity="0" result="BackgroundImageFix"/>
<feColorMatrix in="SourceAlpha" type="matrix" values="0 0 0 0 0 0 0 0 0 0 0 0 0 0 0 0 0 0 127 0" result="hardAlpha"/>
<feOffset dy="4"/>
<feGaussianBlur stdDeviation="10"/>
<feComposite in2="hardAlpha" operator="out"/>
<feColorMatrix type="matrix" values="0 0 0 0 0 0 0 0 0 0 0 0 0 0 0 0 0 0 0.25 0"/>
<feBlend mode="normal" in2="BackgroundImageFix" result="effect1_dropShadow_1993_1020"/>
<feBlend mode="normal" in="SourceGraphic" in2="effect1_dropShadow_1993_1020" result="shape"/>
</filter>
</defs>
</svg>
