<svg width="256" height="256" viewBox="0 0 256 256" fill="none" xmlns="http://www.w3.org/2000/svg">
<rect width="256" height="256" rx="128" fill="url(#paint0_radial_1923_330)" fill-opacity="0.5"/>
<path fill-rule="evenodd" clip-rule="evenodd" d="M148.582 89.2003C144.779 89.6229 141.792 82.0091 138.555 73.7565C133.382 60.5673 127.569 45.7463 116.759 59.489C109.42 68.8187 103.785 81.444 100.853 94.5775C100.825 94.6997 100.681 94.7527 100.582 94.6758C72.1919 72.5845 80.5677 144.548 80.5826 144.676C80.583 144.679 80.5849 144.677 80.5883 144.677C80.5922 144.678 80.5949 144.682 80.5948 144.686C80.5862 145.123 80.5819 145.561 80.5819 146C80.5819 176.928 102.072 202 128.582 202C155.092 202 176.582 176.928 176.582 146C176.582 136.831 175.777 127.622 176.285 118.467C177.065 104.41 176.455 90.5701 172.681 81.4866C166.942 67.6758 163.595 75.8383 160.593 83.1611C158.825 87.474 154.198 88.7599 149.55 89.1098C149.233 89.1337 148.91 89.1638 148.582 89.2003Z" fill="#408CFF"/>
<path fill-rule="evenodd" clip-rule="evenodd" d="M141.273 126.709C139.036 126.958 137.279 122.479 135.374 117.623C132.331 109.864 128.911 101.144 122.551 109.229C118.233 114.718 114.918 122.146 113.193 129.873C113.177 129.945 113.092 129.976 113.033 129.931C96.3309 116.934 101.258 159.271 101.267 159.347C101.267 159.349 101.269 159.348 101.271 159.348C101.273 159.349 101.275 159.351 101.274 159.353C101.269 159.61 101.267 159.868 101.267 160.126C101.267 178.322 113.91 193.073 129.507 193.073C145.103 193.073 157.746 178.322 157.746 160.126C157.746 154.732 157.273 149.313 157.572 143.927C158.03 135.657 157.672 127.515 155.451 122.171C152.075 114.046 150.106 118.848 148.34 123.156C147.299 125.694 144.578 126.45 141.843 126.656C141.656 126.67 141.466 126.688 141.273 126.709Z" fill="#98BFFA"/>
<defs>
<radialGradient id="paint0_radial_1923_330" cx="0" cy="0" r="1" gradientUnits="userSpaceOnUse" gradientTransform="translate(128 128) rotate(90) scale(128)">
<stop stop-color="#408CFF"/>
<stop offset="1" stop-color="#408CFF" stop-opacity="0"/>
</radialGradient>
</defs>
</svg>
